<svg xmlns="http://www.w3.org/2000/svg" version="1.1" width="30" height="30.175531" viewBox="0 0 30 30.175531" id="svg8" xmlns:svg="http://www.w3.org/2000/svg" xmlns:rdf="http://www.w3.org/1999/02/22-rdf-syntax-ns#" xmlns:cc="http://creativecommons.org/ns#" xmlns:dc="http://purl.org/dc/elements/1.1/"><metadata><rdf:RDF xmlns:rdf="http://www.w3.org/1999/02/22-rdf-syntax-ns#" xmlns:dc="http://purl.org/dc/elements/1.1/"><rdf:Description><dc:creator>RealFaviconGenerator</dc:creator><dc:source>https://realfavicongenerator.net</dc:source></rdf:Description></rdf:RDF></metadata><title id="title16">Form to Mail logo</title><defs id="defs2"></defs><metadata id="metadata5">
    <rdf:rdf>
      <cc:work rdf:about="">
        <dc:format>image/svg+xml</dc:format>
        <dc:type rdf:resource="http://purl.org/dc/dcmitype/StillImage"></dc:type>
        <dc:title>Form to Mail logo</dc:title>
        <dc:date>2026-04-01</dc:date>
        <dc:creator>
          <cc:agent>
            <dc:title>Tad Lispy</dc:title>
          </cc:agent>
        </dc:creator>
        <dc:rights>
          <cc:agent>
            <dc:title>All rights reserved</dc:title>
          </cc:agent>
        </dc:rights>
      </cc:work>
    </rdf:rdf>
  </metadata><g id="layer1" transform="translate(-1,-0.8244694)">
    <path id="path1" style="font-variation-settings:'wght' 800;fill:#aa0000;fill-rule:evenodd;stroke-width:5.33333;stroke-linecap:round;stroke-linejoin:round;paint-order:stroke fill markers" d="m 31,16 c 0,3.885454 -2.57645,6.335675 -5,9 -2.74376,3.016347 -5.601183,6 -10,6 C 11.601183,31 9.0731787,28 4.9008477,26.090192 1.6259257,24.591156 1,19.885454 1,16 1,12.114546 1.7676283,7.6860844 4.9008477,5.9098081 8.2696073,4 11.732521,-0.06686986 16,1 20,2 24.355393,2.8934609 27.099152,5.9098081 29.522702,8.5741332 31,12.114546 31,16 Z"></path>
    <path id="path2" style="font-variation-settings:'wght' 800;fill:#550000;fill-rule:evenodd;stroke-width:8.53333;stroke-linecap:round;stroke-linejoin:round;paint-order:stroke fill markers" d="M 16,4 A 12,12 0 0 0 4,16 12,12 0 0 0 16,28 12,12 0 0 0 28,16 12,12 0 0 0 16,4 Z m 5.222656,4.4453125 c 0.12135,0 0.241932,0.039391 0.363282,0.1152344 0.136518,0.060675 0.211393,0.1812572 0.226562,0.3632812 0.03034,0.3792167 0.05319,0.7657709 0.06836,1.1601559 0.01517,0.394386 0.02344,0.774624 0.02344,1.138672 0.01517,0.34888 0.02344,0.658605 0.02344,0.931641 0,0.303373 -0.09968,0.455078 -0.296875,0.455078 -0.07584,0 -0.167256,-0.02917 -0.273437,-0.08984 -0.106181,-0.06067 -0.172788,-0.160357 -0.203125,-0.296875 -0.106181,-0.394385 -0.228716,-0.749817 -0.365235,-1.068359 -0.121349,-0.333711 -0.287638,-0.607951 -0.5,-0.820313 C 20.09187,10.136792 19.85702,9.9933558 19.583984,9.9023438 19.326117,9.7961631 18.999854,9.7421875 18.605469,9.7421875 h -1.433594 c -0.379217,0 -0.690895,0.091413 -0.933594,0.2734375 C 15.995583,10.197649 15.875,10.455352 15.875,10.789062 v 0.933594 0.910156 1.091797 1.115235 c 0,0.197192 0.05202,0.340628 0.158203,0.43164 0.106181,0.07584 0.25157,0.113282 0.433594,0.113282 h 1.046875 1.068359 c 0.394386,0 0.674942,-0.120583 0.841797,-0.363282 0.182024,-0.242698 0.341998,-0.531523 0.478516,-0.865234 0.06067,-0.136518 0.129235,-0.234247 0.205078,-0.294922 0.09101,-0.07584 0.182425,-0.113281 0.273437,-0.113281 0.07584,0 0.142451,0.04571 0.203125,0.136719 0.06067,0.09101 0.08353,0.219863 0.06836,0.386718 -0.03034,0.333711 -0.05951,0.651705 -0.08984,0.955078 -0.01517,0.288205 -0.02344,0.545908 -0.02344,0.773438 0,0.303373 0.0083,0.552807 0.02344,0.75 0.01517,0.197193 0.03802,0.471433 0.06836,0.820312 0.03034,0.227531 0.0138,0.39382 -0.04687,0.5 -0.04551,0.09101 -0.105797,0.136719 -0.18164,0.136719 -0.106181,0 -0.212179,-0.05398 -0.31836,-0.160156 -0.10618,-0.106181 -0.181056,-0.235032 -0.226562,-0.386719 -0.136518,-0.470228 -0.296492,-0.788223 -0.478516,-0.955078 -0.166855,-0.166855 -0.395389,-0.25 -0.683594,-0.25 h -0.521484 -0.523437 -0.660157 -0.660156 c -0.166855,0 -0.295707,0.04571 -0.386719,0.136719 -0.07584,0.09101 -0.113281,0.219863 -0.113281,0.386719 0,0.68259 0.0063,1.395407 0.02148,2.138672 0.01517,0.743264 0.02344,1.456081 0.02344,2.138671 0,0.470229 0.128851,0.796492 0.386719,0.978516 0.273036,0.182024 0.736419,0.341998 1.388672,0.478516 0.136518,0.03034 0.242516,0.08236 0.318359,0.158203 0.07584,0.06067 0.113281,0.166672 0.113281,0.318359 0,0.106181 -0.03112,0.189325 -0.0918,0.25 -0.06067,0.06067 -0.150135,0.0918 -0.271484,0.0918 -0.318542,0 -0.721634,-0.0083 -1.207031,-0.02344 l -1.455078,-0.04492 c -0.470229,-0.01517 -0.858736,-0.02344 -1.16211,-0.02344 -0.303373,0 -0.658805,0.0083 -1.068359,0.02344 -0.394385,0.01517 -0.803793,0.02975 -1.228516,0.04492 -0.409554,0.03034 -0.781523,0.04688 -1.115234,0.04688 -0.09101,0 -0.182426,-0.03112 -0.273438,-0.0918 -0.09101,-0.06067 -0.136718,-0.14382 -0.136718,-0.25 0,-0.257868 0.145389,-0.424157 0.433593,-0.5 0.57641,-0.12135 0.96928,-0.273054 1.181641,-0.455079 0.212361,-0.182024 0.320312,-0.508286 0.320312,-0.978515 v -10.33008 c 0,-0.485398 -0.09968,-0.826245 -0.296874,-1.0234378 C 11.528913,9.7134199 11.173481,9.5451775 10.642578,9.4238281 10.460554,9.3783221 10.32975,9.309762 10.253906,9.21875 c -0.06067,-0.091012 -0.08984,-0.1804724 -0.08984,-0.2714844 0,-0.1061806 0.03744,-0.1912784 0.113282,-0.2519531 0.09101,-0.075843 0.205279,-0.1132813 0.341797,-0.1132813 0.33371,0 0.697411,0.00827 1.091797,0.023438 0.394385,0.015169 0.780939,0.038022 1.160156,0.068359 0.379216,0.015169 0.720064,0.021484 1.023437,0.021484 h 2.072266 2.160156 c 0.652253,0 1.244487,-0.037438 1.775391,-0.1132813 0.546072,-0.091012 0.986602,-0.1367187 1.320312,-0.1367187 z"></path>
  </g></svg>