<?xml version="1.0" encoding="UTF-8" standalone="no"?>
<svg
   width="32"
   height="32"
   viewBox="0 0 32 32"
   version="1.1"
   id="svg8"
   inkscape:version="1.4.3 (0d15f75042, 2025-12-25)"
   sodipodi:docname="form-to-mail-logo.svg"
   inkscape:export-filename="../resources/public/logo.png"
   inkscape:export-xdpi="96"
   inkscape:export-ydpi="96"
   inkscape:export-batch-name="logo"
   inkscape:export-batch-path="../resources/public"
   xmlns:inkscape="http://www.inkscape.org/namespaces/inkscape"
   xmlns:sodipodi="http://sodipodi.sourceforge.net/DTD/sodipodi-0.dtd"
   xmlns="http://www.w3.org/2000/svg"
   xmlns:svg="http://www.w3.org/2000/svg"
   xmlns:rdf="http://www.w3.org/1999/02/22-rdf-syntax-ns#"
   xmlns:cc="http://creativecommons.org/ns#"
   xmlns:dc="http://purl.org/dc/elements/1.1/">
  <title
     id="title16">Form to Mail logo</title>
  <defs
     id="defs2" />
  <sodipodi:namedview
     id="base"
     pagecolor="#ffffff"
     bordercolor="#666666"
     borderopacity="1.0"
     inkscape:pageopacity="0.0"
     inkscape:pageshadow="2"
     inkscape:zoom="15.839192"
     inkscape:cx="13.85803"
     inkscape:cy="14.89975"
     inkscape:document-units="px"
     inkscape:current-layer="layer1"
     inkscape:document-rotation="0"
     showgrid="false"
     units="px"
     scale-x="1"
     inkscape:showpageshadow="0"
     inkscape:pagecheckerboard="1"
     inkscape:deskcolor="#d1d1d1"
     inkscape:window-width="1920"
     inkscape:window-height="1011"
     inkscape:window-x="0"
     inkscape:window-y="0"
     inkscape:window-maximized="1">
    <inkscape:grid
       id="grid1"
       units="px"
       originx="16"
       originy="16"
       spacingx="1"
       spacingy="1"
       empcolor="#0099e5"
       empopacity="0.30196078"
       color="#0099e5"
       opacity="0.14901961"
       empspacing="5"
       enabled="true"
       visible="false" />
  </sodipodi:namedview>
  <metadata
     id="metadata5">
    <rdf:RDF>
      <cc:Work
         rdf:about="">
        <dc:format>image/svg+xml</dc:format>
        <dc:type
           rdf:resource="http://purl.org/dc/dcmitype/StillImage" />
        <dc:title>Form to Mail logo</dc:title>
        <dc:date>2026-04-01</dc:date>
        <dc:creator>
          <cc:Agent>
            <dc:title>Tad Lispy</dc:title>
          </cc:Agent>
        </dc:creator>
        <dc:rights>
          <cc:Agent>
            <dc:title>All rights reserved</dc:title>
          </cc:Agent>
        </dc:rights>
      </cc:Work>
    </rdf:RDF>
  </metadata>
  <g
     inkscape:label="Layer 1"
     inkscape:groupmode="layer"
     id="layer1">
    <path
       id="path1"
       style="font-variation-settings:'wght' 800;fill:#aa0000;fill-rule:evenodd;stroke-width:5.33333;stroke-linecap:round;stroke-linejoin:round;paint-order:stroke fill markers"
       d="m 31,16 c 0,3.885454 -2.57645,6.335675 -5,9 -2.74376,3.016347 -5.601183,6 -10,6 C 11.601183,31 9.0731787,28 4.9008477,26.090192 1.6259257,24.591156 1,19.885454 1,16 1,12.114546 1.7676283,7.6860844 4.9008477,5.9098081 8.2696073,4 11.732521,-0.06686986 16,1 20,2 24.355393,2.8934609 27.099152,5.9098081 29.522702,8.5741332 31,12.114546 31,16 Z"
       sodipodi:nodetypes="sssssssss" />
    <path
       id="path2"
       style="font-variation-settings:'wght' 800;fill:#550000;fill-rule:evenodd;stroke-width:8.53333;stroke-linecap:round;stroke-linejoin:round;paint-order:stroke fill markers"
       d="M 16 4 A 12 12 0 0 0 4 16 A 12 12 0 0 0 16 28 A 12 12 0 0 0 28 16 A 12 12 0 0 0 16 4 z M 21.222656 8.4453125 C 21.344006 8.4453125 21.464588 8.4847035 21.585938 8.5605469 C 21.722456 8.6212215 21.797331 8.7418041 21.8125 8.9238281 C 21.842837 9.3030448 21.865691 9.689599 21.880859 10.083984 C 21.896028 10.47837 21.904297 10.858608 21.904297 11.222656 C 21.919466 11.571536 21.927734 11.881261 21.927734 12.154297 C 21.927734 12.45767 21.828052 12.609375 21.630859 12.609375 C 21.555016 12.609375 21.463603 12.580206 21.357422 12.519531 C 21.251241 12.458857 21.184634 12.359174 21.154297 12.222656 C 21.048116 11.828271 20.925581 11.472839 20.789062 11.154297 C 20.667713 10.820586 20.501424 10.546346 20.289062 10.333984 C 20.09187 10.136792 19.85702 9.9933558 19.583984 9.9023438 C 19.326117 9.7961631 18.999854 9.7421875 18.605469 9.7421875 L 17.171875 9.7421875 C 16.792658 9.7421875 16.48098 9.833601 16.238281 10.015625 C 15.995583 10.197649 15.875 10.455352 15.875 10.789062 L 15.875 11.722656 L 15.875 12.632812 L 15.875 13.724609 L 15.875 14.839844 C 15.875 15.037036 15.927022 15.180472 16.033203 15.271484 C 16.139384 15.347328 16.284773 15.384766 16.466797 15.384766 L 17.513672 15.384766 L 18.582031 15.384766 C 18.976417 15.384766 19.256973 15.264183 19.423828 15.021484 C 19.605852 14.778786 19.765826 14.489961 19.902344 14.15625 C 19.963018 14.019732 20.031579 13.922003 20.107422 13.861328 C 20.198434 13.785485 20.289847 13.748047 20.380859 13.748047 C 20.456703 13.748047 20.52331 13.793754 20.583984 13.884766 C 20.644659 13.975778 20.667512 14.104629 20.652344 14.271484 C 20.622006 14.605195 20.592837 14.923189 20.5625 15.226562 C 20.547331 15.514767 20.539062 15.77247 20.539062 16 C 20.539062 16.303373 20.547331 16.552807 20.5625 16.75 C 20.577669 16.947193 20.600522 17.221433 20.630859 17.570312 C 20.661197 17.797843 20.644659 17.964132 20.583984 18.070312 C 20.538478 18.161325 20.478187 18.207031 20.402344 18.207031 C 20.296163 18.207031 20.190165 18.153056 20.083984 18.046875 C 19.977804 17.940694 19.902928 17.811843 19.857422 17.660156 C 19.720904 17.189928 19.56093 16.871933 19.378906 16.705078 C 19.212051 16.538223 18.983517 16.455078 18.695312 16.455078 L 18.173828 16.455078 L 17.650391 16.455078 L 16.990234 16.455078 L 16.330078 16.455078 C 16.163223 16.455078 16.034371 16.500785 15.943359 16.591797 C 15.867516 16.682809 15.830078 16.81166 15.830078 16.978516 C 15.830078 17.661106 15.836394 18.373923 15.851562 19.117188 C 15.866731 19.860452 15.875 20.573269 15.875 21.255859 C 15.875 21.726088 16.003851 22.052351 16.261719 22.234375 C 16.534755 22.416399 16.998138 22.576373 17.650391 22.712891 C 17.786909 22.743228 17.892907 22.79525 17.96875 22.871094 C 18.044593 22.931768 18.082031 23.037766 18.082031 23.189453 C 18.082031 23.295634 18.050909 23.378778 17.990234 23.439453 C 17.92956 23.500128 17.840099 23.53125 17.71875 23.53125 C 17.400208 23.53125 16.997116 23.522981 16.511719 23.507812 L 15.056641 23.462891 C 14.586412 23.447722 14.197905 23.439453 13.894531 23.439453 C 13.591158 23.439453 13.235726 23.447722 12.826172 23.462891 C 12.431787 23.478059 12.022379 23.492644 11.597656 23.507812 C 11.188102 23.53815 10.816133 23.554688 10.482422 23.554688 C 10.39141 23.554688 10.299996 23.523565 10.208984 23.462891 C 10.117972 23.402216 10.072266 23.319071 10.072266 23.212891 C 10.072266 22.955023 10.217655 22.788734 10.505859 22.712891 C 11.082269 22.591541 11.475139 22.439837 11.6875 22.257812 C 11.899861 22.075788 12.007812 21.749526 12.007812 21.279297 L 12.007812 10.949219 C 12.007812 10.463821 11.90813 10.122974 11.710938 9.9257812 C 11.528913 9.7134199 11.173481 9.5451775 10.642578 9.4238281 C 10.460554 9.3783221 10.32975 9.309762 10.253906 9.21875 C 10.193232 9.127738 10.164062 9.0382776 10.164062 8.9472656 C 10.164062 8.841085 10.2015 8.7559872 10.277344 8.6953125 C 10.368356 8.6194692 10.482623 8.5820312 10.619141 8.5820312 C 10.952851 8.5820312 11.316552 8.5903001 11.710938 8.6054688 C 12.105323 8.6206374 12.491877 8.6434908 12.871094 8.6738281 C 13.25031 8.6889968 13.591158 8.6953125 13.894531 8.6953125 L 15.966797 8.6953125 L 18.126953 8.6953125 C 18.779206 8.6953125 19.37144 8.6578746 19.902344 8.5820312 C 20.448416 8.4910192 20.888946 8.4453125 21.222656 8.4453125 z " />
  </g>
</svg>
